<svg xmlns="http://www.w3.org/2000/svg" width="115.507" height="28.995" viewBox="0 0 115.507 28.995"><g transform="translate(-1475.875 -47)"><path d="M15601.712,3742l4.461,4.442v13.867l3.623-3.674-1.936-1.894.031-6.313,5.006,5.06,4.99-5.06.031,6.313-1.9,1.907,9.787,9.894h-5.9l-6.955-6.809-9.15,9.206-.01-.035-2.086,2.092Zm-6.582,24.52v-.01l-5.537-5.487,3.35-3.4-.021-.028,2.209,2.109v-6.882l-13.691,13.714h-6.186l19.877-20.053v-.043l4.461-4.442v29Zm-11.289-11.194-1.4-1.384.031-6.314,4.631,4.42Z" transform="translate(-14034.428 -3695)" fill="#ff7575"/><g transform="translate(459 -436.872)"><path d="M14.45,12.368h0L5.6,12.344s-.106,0-.263,0a7.993,7.993,0,0,1-1.427-.091A4.741,4.741,0,0,1,2.7,11.677l-.075-.044c-.411-.193-2.639-1.751-2.621-4-.012-.017,0-.952,0-.992A4.5,4.5,0,0,1,.48,4.551a6.358,6.358,0,0,1,4.226-3.2c.631-.01,1.3-.016,1.981-.016,1.167,0,1.989.015,2,.016a.018.018,0,0,1,0,.009,4.169,4.169,0,0,1-.515,1.669,2.591,2.591,0,0,1-1.215.888l-2.1.317c-.02.008-2.024.851-2.075,2.462,0,.061,0,.116,0,.171a3.261,3.261,0,0,0,0,.381c.1,2.053,1.49,2.212,1.915,2.212a1.36,1.36,0,0,0,.161-.008h8.793a3.251,3.251,0,0,0,2.768-2.642,4.818,4.818,0,0,0,.036-.785V5.972c0-1.612-1.731-2.678-2.658-2.891h-.4A2.378,2.378,0,0,1,11.5,2.459a3.456,3.456,0,0,1-.6-2.2H22.869a.026.026,0,0,1,0,.011,5.724,5.724,0,0,1-.829,2.1,1.913,1.913,0,0,1-1.426.657H18.286a.035.035,0,0,1,.007.009,6.785,6.785,0,0,1,.857,2.01v2.71a3.407,3.407,0,0,0,.75,1.183,2.475,2.475,0,0,0,1.153.518h4.123a3.918,3.918,0,0,0,1.837-.826,3.406,3.406,0,0,0,1.049-1.8c.006-.015,0-1.041,0-1.645A2.23,2.23,0,0,1,28.941,4a4.775,4.775,0,0,1,1.741-.538V6.833a4.34,4.34,0,0,0,.9,1.8,3.453,3.453,0,0,0,1.669.826l3.869,0c1.25,0,1.346,0,1.349,0a2.894,2.894,0,0,1-.284-1.294l-.005-.095c-.024-.389.029-1.226.03-1.235a3.9,3.9,0,0,1,.675-1.595,4.055,4.055,0,0,1,3.51-1.595c3.561,0,4.253,2,4.349,3.19V8.938c.012,0,1.359-.336,1.528-2.679,0-.049,0-.1,0-.161,0-.129,0-.276,0-.417,0-1.19-1.27-2.2-2.028-2.7a3.041,3.041,0,0,0-.915-.277l-.017,0c-1.346,0-5.623-.049-5.8-.051L38.208,0h7.755A8.233,8.233,0,0,1,48.5,1.221a5.823,5.823,0,0,1,2.537,4.862A6.1,6.1,0,0,1,48.5,11.046a8.632,8.632,0,0,1-2.537,1.322H33.046a9.1,9.1,0,0,1-2.363-.788,4.1,4.1,0,0,1-1.413-1.344.023.023,0,0,1,0,.007A5.087,5.087,0,0,1,27.9,11.579a7.354,7.354,0,0,1-2,.788h-5.3a2.322,2.322,0,0,1-.306-.119c-.048-.022-.112-.051-.214-.1s-.186-.078-.291-.119a6.163,6.163,0,0,1-.966-.455,6.837,6.837,0,0,1-1.366-1.143s0,0,0,.007A5.562,5.562,0,0,1,16.2,11.579a8.252,8.252,0,0,1-1.748.788ZM43.028,9.615h0a.964.964,0,0,0,1.241-1.241A1.766,1.766,0,1,0,40.8,7.91a1.766,1.766,0,0,0,2.23,1.7Z" transform="translate(1016.875 494.221)" fill="#18191a"/><path d="M2112.274-3518.436c-.034-.017,0,11.789,0,11.789s1.859.068,2.8-3.037h0l-.085-11.516A3.757,3.757,0,0,0,2112.274-3518.436Z" transform="translate(-1041.712 4013.236)" fill="#18191a"/><path d="M2097.223-3537.11l1.1-1.141a3.9,3.9,0,0,1,.535-1.333,2.929,2.929,0,0,1,1.131-.777h2.584l1.11-1.06h-3.815a4,4,0,0,0-1.767.888,3.917,3.917,0,0,0-.878,1.756Z" transform="translate(-1028.285 4031.293)" fill="#18191a"/><path d="M1.826,0A1.826,1.826,0,1,1,0,1.826,1.826,1.826,0,0,1,1.826,0Z" transform="translate(1043.991 492.903)" fill="#18191a"/></g></g></svg>